<svg width="12" height="16" viewBox="0 0 12 16" fill="none" xmlns="http://www.w3.org/2000/svg">
<path d="M11.9527 5.51C11.9445 5.486 11.9377 5.46275 11.928 5.4395C11.8924 5.3581 11.8427 5.28369 11.781 5.21975L7.281 0.71975C7.21706 0.658087 7.14265 0.608309 7.06125 0.57275C7.03875 0.56225 7.01475 0.55625 6.99075 0.548C6.92799 0.526645 6.86267 0.513781 6.7965 0.50975C6.78 0.50825 6.76575 0.5 6.75 0.5H1.5C0.67275 0.5 0 1.17275 0 2V14C0 14.8273 0.67275 15.5 1.5 15.5H10.5C11.3272 15.5 12 14.8273 12 14V5.75C12 5.73425 11.9917 5.72 11.9902 5.7035C11.9864 5.63762 11.9738 5.57255 11.9527 5.51ZM9.4395 5H7.5V3.0605L9.4395 5ZM1.5 14V2H6V5.75C6 5.94891 6.07902 6.13968 6.21967 6.28033C6.36032 6.42098 6.55109 6.5 6.75 6.5H10.5L10.5015 14H1.5Z" fill="#A8B0B7"/>
</svg>
