<svg width="16" height="12" viewBox="0 0 16 12" fill="none" xmlns="http://www.w3.org/2000/svg">
<path d="M13.208 5.334C12.8803 2.7525 10.67 0.75 8 0.75C5.933 0.75 4.1375 1.95825 3.31775 3.8625C1.70675 4.344 0.5 5.865 0.5 7.5C0.5 9.56775 2.18225 11.25 4.25 11.25H12.5C14.1545 11.25 15.5 9.9045 15.5 8.25C15.4988 7.57771 15.2725 6.92519 14.857 6.39662C14.4416 5.86806 13.861 5.49394 13.208 5.334ZM12.5 9.75H4.25C3.0095 9.75 2 8.7405 2 7.5C2 6.447 2.89925 5.433 4.00475 5.23875L4.4405 5.16225L4.5845 4.74375C5.11175 3.2055 6.42125 2.25 8 2.25C10.0678 2.25 11.75 3.93225 11.75 6V6.75H12.5C13.3273 6.75 14 7.42275 14 8.25C14 9.07725 13.3273 9.75 12.5 9.75Z" fill="#A8B0B7"/>
</svg>
