<svg width="14" height="16" viewBox="0 0 14 16" fill="none" xmlns="http://www.w3.org/2000/svg">
<path d="M1.75195 15.5002H12.252C13.0792 15.5002 13.752 14.8274 13.752 14.0002V7.25015C13.7521 7.15165 13.7327 7.0541 13.695 6.9631C13.6573 6.8721 13.602 6.78946 13.5322 6.7199L7.5322 0.719901C7.46261 0.650192 7.37996 0.594888 7.28897 0.557155C7.19799 0.519422 7.10045 0.5 7.00195 0.5C6.90345 0.5 6.80592 0.519422 6.71493 0.557155C6.62395 0.594888 6.5413 0.650192 6.4717 0.719901L0.471704 6.7199C0.401955 6.78946 0.346636 6.8721 0.308924 6.9631C0.271213 7.0541 0.251852 7.15165 0.251954 7.25015V14.0002C0.251954 14.8274 0.924703 15.5002 1.75195 15.5002ZM5.50195 14.0002V10.2502H8.50195V14.0002H5.50195ZM1.75195 7.56065L7.00195 2.31065L12.252 7.56065L12.2527 14.0002H10.002V10.2502C10.002 9.4229 9.3292 8.75015 8.50195 8.75015H5.50195C4.6747 8.75015 4.00195 9.4229 4.00195 10.2502V14.0002H1.75195V7.56065Z" fill="#00847A"/>
</svg>
